<?xml version="1.0" encoding="utf-8"?>
<svg id="Capa_1" style="enable-background:new 0 0 477.2 477.2;" x="0px" y="0px" viewBox="0 0 477.2 477.2" xmlns="http://www.w3.org/2000/svg">
  <style type="text/css">
	.st0{fill:#fff;}
</style>
  <g transform="matrix(-1, 0, 0, -1, 477.099976, 478.5)">
    <path class="st0" d="M 74.15 291.85 C 74.15 295.95 75.85 300.05 78.75 302.95 L 123.35 347.55 C 126.25 350.45 130.35 352.15 134.45 352.15 C 138.55 352.15 142.65 350.45 145.55 347.55 L 238.45 254.65 L 331.35 347.55 C 334.35 350.55 338.55 352.25 342.75 352.15 C 346.75 352.05 350.75 350.35 353.65 347.55 L 398.25 302.95 C 401.15 300.05 402.85 295.95 402.85 291.85 C 402.85 287.75 401.15 283.65 398.25 280.75 L 249.65 132.15 C 246.75 129.25 242.65 127.55 238.55 127.55 C 234.45 127.55 230.35 129.25 227.45 132.15 L 78.85 280.75 C 75.85 283.65 74.15 287.75 74.15 291.85 L 74.15 291.85 Z" style="fill: rgb(255, 255, 255);"/>
  </g>
</svg>